<svg width="249" height="106" viewBox="0 0 249 106" fill="none" xmlns="http://www.w3.org/2000/svg">
<path d="M58.2266 84.3636V51.9963H66.4126V77.7773H79.0208V84.3636H58.2266ZM82.9318 55.4777V49.4088H90.6943V55.4777H82.9318ZM83.0259 84.3636V60.3704H90.6472V84.3636H83.0259ZM96.4871 84.3636V60.3704H103.638L103.826 63.2873H104.25C104.72 62.4718 105.3 61.8289 105.99 61.3584C106.68 60.8566 107.464 60.5116 108.343 60.3234C109.221 60.1039 110.177 59.9941 111.212 59.9941C112.812 59.9941 114.082 60.1979 115.023 60.6057C115.995 61.0134 116.732 61.6093 117.234 62.3934C117.736 63.1775 118.065 64.1498 118.222 65.3102C118.41 66.4707 118.504 67.8193 118.504 69.3561V84.3636H110.93V71.6614C110.93 70.3755 110.899 69.3718 110.836 68.6505C110.773 67.8977 110.632 67.3489 110.413 67.0039C110.193 66.6589 109.848 66.455 109.378 66.3923C108.938 66.2982 108.343 66.2511 107.59 66.2511C106.806 66.2511 106.163 66.3452 105.661 66.5334C105.191 66.6902 104.83 66.9725 104.579 67.3802C104.359 67.788 104.203 68.3682 104.108 69.1209C104.046 69.8423 104.014 70.7518 104.014 71.8495V84.3636H96.4871ZM131.339 84.74C129.959 84.74 128.768 84.5518 127.764 84.1755C126.76 83.7991 125.945 83.1561 125.318 82.2466C124.69 81.3057 124.22 80.0355 123.906 78.4359C123.624 76.8364 123.483 74.8291 123.483 72.4141C123.483 70.0305 123.624 68.0389 123.906 66.4393C124.188 64.8084 124.643 63.5382 125.271 62.6286C125.898 61.6877 126.698 61.0134 127.67 60.6057C128.673 60.1979 129.881 59.9941 131.292 59.9941C132.233 59.9941 133.111 60.0725 133.927 60.2293C134.774 60.3861 135.542 60.6684 136.232 61.0761C136.922 61.4839 137.518 62.0954 138.02 62.9109H138.396V49.4088H145.971V84.3636H138.773L138.584 81.4939H138.208C137.738 82.4034 137.126 83.0934 136.373 83.5639C135.652 84.003 134.852 84.3009 133.974 84.4577C133.127 84.6459 132.249 84.74 131.339 84.74ZM134.727 78.53C135.699 78.53 136.42 78.4202 136.891 78.2007C137.393 77.9498 137.753 77.5107 137.973 76.8834C138.161 76.3189 138.271 75.6759 138.302 74.9545C138.365 74.2018 138.396 73.3393 138.396 72.367C138.396 71.3948 138.365 70.548 138.302 69.8266C138.271 69.1052 138.161 68.4936 137.973 67.9918C137.785 67.3018 137.44 66.8314 136.938 66.5805C136.436 66.3295 135.699 66.2041 134.727 66.2041C133.88 66.2041 133.206 66.2668 132.704 66.3923C132.202 66.5177 131.826 66.7843 131.575 67.192C131.355 67.5684 131.214 68.1643 131.151 68.9798C131.088 69.7952 131.057 70.9243 131.057 72.367C131.057 73.8098 131.088 74.9545 131.151 75.8014C131.214 76.6168 131.355 77.2284 131.575 77.6361C131.826 78.0125 132.202 78.2634 132.704 78.3889C133.206 78.483 133.88 78.53 134.727 78.53ZM162.341 84.74C160.208 84.74 158.436 84.6146 157.024 84.3636C155.613 84.1127 154.5 83.705 153.684 83.1405C152.869 82.5759 152.273 81.8232 151.896 80.8823C151.52 79.9414 151.269 78.7652 151.144 77.3539C151.05 75.9425 151.003 74.2645 151.003 72.32C151.003 70.3755 151.05 68.7132 151.144 67.3332C151.269 65.9218 151.52 64.7457 151.896 63.8048C152.273 62.8639 152.869 62.1111 153.684 61.5466C154.5 60.982 155.613 60.59 157.024 60.3704C158.436 60.1195 160.208 59.9941 162.341 59.9941C164.505 59.9941 166.292 60.1195 167.704 60.3704C169.115 60.59 170.228 60.982 171.044 61.5466C171.859 62.1111 172.455 62.8639 172.832 63.8048C173.208 64.7457 173.443 65.9218 173.537 67.3332C173.663 68.7132 173.726 70.3755 173.726 72.32C173.726 74.2645 173.663 75.9425 173.537 77.3539C173.443 78.7652 173.208 79.9414 172.832 80.8823C172.455 81.8232 171.859 82.5759 171.044 83.1405C170.228 83.705 169.115 84.1127 167.704 84.3636C166.292 84.6146 164.505 84.74 162.341 84.74ZM162.341 79.0005C163.281 79.0005 164.018 78.9377 164.552 78.8123C165.085 78.6868 165.461 78.4046 165.681 77.9655C165.9 77.5264 166.026 76.8521 166.057 75.9425C166.12 75.033 166.151 73.8255 166.151 72.32C166.151 70.8145 166.12 69.6227 166.057 68.7445C166.026 67.8664 165.9 67.2077 165.681 66.7686C165.461 66.3295 165.085 66.0473 164.552 65.9218C164.018 65.7964 163.281 65.7336 162.341 65.7336C161.4 65.7336 160.663 65.7964 160.129 65.9218C159.628 66.0473 159.267 66.3295 159.047 66.7686C158.828 67.2077 158.687 67.8664 158.624 68.7445C158.593 69.6227 158.577 70.8145 158.577 72.32C158.577 73.8255 158.593 75.033 158.624 75.9425C158.687 76.8521 158.828 77.5264 159.047 77.9655C159.267 78.4046 159.628 78.6868 160.129 78.8123C160.663 78.9377 161.4 79.0005 162.341 79.0005ZM178.771 93.7257V60.3704H185.922L186.11 63.2873H186.533C187.035 62.3777 187.631 61.6877 188.321 61.2173C189.042 60.7468 189.842 60.4332 190.72 60.2764C191.599 60.0882 192.477 59.9941 193.355 59.9941C194.766 59.9941 195.958 60.1823 196.93 60.5586C197.934 60.935 198.749 61.5936 199.377 62.5345C200.035 63.4441 200.506 64.6986 200.788 66.2982C201.102 67.8977 201.259 69.905 201.259 72.32C201.259 74.7036 201.102 76.6952 200.788 78.2948C200.506 79.8943 200.051 81.1646 199.424 82.1055C198.796 83.0464 197.981 83.7207 196.977 84.1284C196.005 84.5361 194.813 84.74 193.402 84.74C192.492 84.74 191.614 84.6616 190.767 84.5048C189.921 84.348 189.152 84.0657 188.462 83.658C187.804 83.2189 187.223 82.6073 186.721 81.8232H186.298V93.7257H178.771ZM189.968 78.53C190.814 78.53 191.489 78.4673 191.991 78.3418C192.492 78.2164 192.853 77.9655 193.073 77.5891C193.324 77.1814 193.48 76.5698 193.543 75.7543C193.637 74.9389 193.684 73.8098 193.684 72.367C193.684 70.9243 193.637 69.7952 193.543 68.9798C193.48 68.133 193.324 67.5214 193.073 67.145C192.853 66.7373 192.492 66.4864 191.991 66.3923C191.489 66.2668 190.814 66.2041 189.968 66.2041C189.058 66.2041 188.352 66.3295 187.851 66.5805C187.38 66.8 187.019 67.192 186.769 67.7566C186.58 68.2584 186.455 68.9014 186.392 69.6855C186.329 70.4382 186.298 71.332 186.298 72.367C186.298 73.4334 186.329 74.343 186.392 75.0957C186.455 75.8484 186.565 76.4443 186.721 76.8834C186.972 77.5107 187.349 77.9498 187.851 78.2007C188.352 78.4202 189.058 78.53 189.968 78.53ZM217.487 84.74C215.229 84.74 213.363 84.5989 211.889 84.3166C210.415 84.0343 209.239 83.5952 208.361 82.9993C207.514 82.3721 206.871 81.5723 206.432 80.6C206.024 79.6277 205.757 78.4673 205.632 77.1186C205.538 75.77 205.491 74.2018 205.491 72.4141C205.491 70.25 205.585 68.3839 205.773 66.8157C205.993 65.2475 206.463 63.9616 207.184 62.9579C207.906 61.9543 209.019 61.2173 210.525 60.7468C212.061 60.245 214.131 59.9941 216.735 59.9941C218.836 59.9941 220.545 60.1509 221.863 60.4645C223.18 60.7468 224.215 61.2016 224.968 61.8289C225.752 62.4248 226.301 63.2089 226.614 64.1811C226.959 65.1534 227.179 66.3295 227.273 67.7095C227.367 69.0582 227.414 70.6264 227.414 72.4141V74.2489H212.971C212.971 75.3152 213.018 76.1777 213.112 76.8364C213.206 77.4636 213.457 77.9341 213.865 78.2477C214.273 78.5614 214.9 78.7809 215.747 78.9064C216.594 79.0005 217.77 79.0475 219.275 79.0475C219.871 79.0475 220.577 79.0318 221.392 79.0005C222.208 78.9691 223.054 78.9221 223.933 78.8593C224.842 78.7966 225.689 78.7339 226.473 78.6711V83.9402C225.783 84.0971 224.936 84.2382 223.933 84.3636C222.96 84.4891 221.91 84.5832 220.781 84.6459C219.651 84.7086 218.554 84.74 217.487 84.74ZM220.31 71.0968V70.3441C220.31 69.215 220.247 68.3211 220.122 67.6625C220.028 67.0039 219.84 66.5177 219.557 66.2041C219.306 65.8591 218.946 65.6395 218.475 65.5455C218.005 65.4514 217.409 65.4043 216.688 65.4043C215.872 65.4043 215.214 65.467 214.712 65.5925C214.241 65.6866 213.881 65.9061 213.63 66.2511C213.379 66.5961 213.206 67.098 213.112 67.7566C213.018 68.4152 212.971 69.2777 212.971 70.3441H221.11L220.31 71.0968ZM234.877 84.3636V66.11H230.502V60.3704H234.877V53.4077H242.499V60.3704H247.721V66.11H242.499V84.3636H234.877Z" fill="#F9F5EA"/>
<path d="M66.2098 18.0802C66.0752 15.195 64.8736 12.4626 62.8382 10.4134C61.7533 9.31651 60.4623 8.44493 59.0394 7.84873C57.6166 7.25253 56.0899 6.94346 54.5471 6.93931C53.0044 6.93516 51.4761 7.236 50.05 7.82454C48.624 8.41307 47.3283 9.27769 46.2375 10.3687C45.1468 11.4597 44.2824 12.7555 43.6942 14.1817C43.106 15.6079 42.8055 17.1363 42.8099 18.679C42.8144 20.2217 43.1238 21.7484 43.7203 23.1711C44.3168 24.5939 45.1887 25.8847 46.2857 26.9693L26.9728 46.2857C25.8882 45.1886 24.5974 44.3168 23.1746 43.7203C21.7519 43.1238 20.2253 42.8144 18.6825 42.8099C17.1398 42.8054 15.6114 43.1059 14.1852 43.6942C12.7591 44.2824 11.4632 45.1468 10.3722 46.2375C9.28123 47.3283 8.41661 48.6239 7.82808 50.05C7.23954 51.4761 6.9387 53.0044 6.94285 54.5471C6.947 56.0898 7.25607 57.6165 7.85227 59.0394C8.44847 60.4623 9.32006 61.7533 10.4169 62.8381C12.5452 64.9665 15.2987 66.0622 18.0838 66.2097C18.2313 68.9948 19.327 71.7448 21.4554 73.8766C22.5402 74.9734 23.8312 75.845 25.2541 76.4412C26.677 77.0374 28.2037 77.3465 29.7464 77.3506C31.2891 77.3548 32.8174 77.054 34.2435 76.4654C35.6696 75.8769 36.9652 75.0123 38.056 73.9213C39.1467 72.8303 40.0111 71.5344 40.5993 70.1083C41.1875 68.6821 41.4881 67.1537 41.4836 65.6109C41.4791 64.0682 41.1697 62.5416 40.5732 61.1188C39.9767 59.6961 39.1049 58.4053 38.0078 57.3207L57.3207 38.0077C58.4053 39.1048 59.6961 39.9767 61.1189 40.5732C62.5416 41.1697 64.0682 41.4791 65.611 41.4836C67.1537 41.488 68.6821 41.1875 70.1083 40.5993C71.5345 40.0111 72.8303 39.1467 73.9213 38.056C75.0123 36.9652 75.8769 35.6695 76.4654 34.2435C77.054 32.8174 77.3548 31.2891 77.3507 29.7464C77.3465 28.2036 77.0375 26.6769 76.4412 25.2541C75.845 23.8312 74.9735 22.5402 73.8766 21.4553C71.8287 19.4175 69.0958 18.2144 66.2098 18.0802V18.0802Z" fill="#F9F5EA"/>
</svg>
